<?xml version="1.0" encoding="iso-8859-1"?>
<!-- Generator: Adobe Illustrator 19.0.0, SVG Export Plug-In . SVG Version: 6.00 Build 0)  -->
<svg version="1.1" id="Capa_1" xmlns="http://www.w3.org/2000/svg" xmlns:xlink="http://www.w3.org/1999/xlink" x="0px" y="0px"
	 viewBox="0 0 511.987 511.987" style="enable-background:new 0 0 511.987 511.987;" xml:space="preserve">
<g>
	<g>
		<path d="M487.997,261.513c-1.952,2.144-4.8,4.384-8,6.624V80.009c0-44.096-35.872-80-80-80h-288c-44.096,0-80,35.904-80,80
			v185.536c-16-9.44-28.64-16.064-30.688-10.656c-4.768,12.32,3.776,20.896,20.896,41.856c17.12,20.96,90.848,49.824,90.848,49.824
			s0,61.92,0,87.616c0,25.728,53.216,64.736,80.768,64.736s48.448-19.04,48.448-32.384c0-13.312,0-50.432,0-80.928
			c3.84,2.592,9.632,4.16,16.16,5.088c0,35.808,0,72.608,0,75.84c0,13.312,18.496,45.44,74.592,45.44s70.784-66.4,70.784-77.792
			c0-11.424,0-51.424,0-80.928c39.904-20.96,80.768-32.384,100.32-69.856C522.525,248.169,505.085,242.473,487.997,261.513z
			 M447.997,284.873c-25.856,11.104-54.624,19.84-60.32,19.84c-9.504,0-62.688,0-80.768,0c-18.048,0-48.48,4.768-48.48,16.192
			c0,0,0,4.064,0,10.464c-1.568-1.888-2.432-3.232-2.432-3.232c-13.28-12.352-26.592-21.856-50.336-20.896
			c-23.776,0.928-79.84-2.88-112.16-10.496c-8.672-2.016-18.976-6.88-29.504-12.608V80.009c0-26.464,21.536-48,48-48h288
			c26.464,0,48,21.536,48,48V284.873z"/>
	</g>
</g>
<g>
	<g>
		<ellipse cx="333.85" cy="221.64" rx="56.54" ry="56.64"/>
	</g>
</g>
<g>
	<g>
		<ellipse cx="184.86" cy="221.64" rx="56.54" ry="56.64"/>
	</g>
</g>
<g>
</g>
<g>
</g>
<g>
</g>
<g>
</g>
<g>
</g>
<g>
</g>
<g>
</g>
<g>
</g>
<g>
</g>
<g>
</g>
<g>
</g>
<g>
</g>
<g>
</g>
<g>
</g>
<g>
</g>
</svg>
